<?xml version="1.0" encoding="UTF-8"?>
<svg version="1.1" xmlns="http://www.w3.org/2000/svg" width="960" height="960">
<path d="M0 0 C0.51062988 0.4655127 1.02125977 0.93102539 1.54736328 1.41064453 C10.45700128 9.53701765 19.28190632 17.68639864 27.13671875 26.859375 C29.28886777 29.33186486 31.51980719 31.72271357 33.75 34.125 C38.96681803 39.85250051 43.72844564 45.86818009 48.45361328 52.00341797 C50.1318777 54.17027089 51.82817917 56.32215826 53.52734375 58.47265625 C60.0624857 66.76262102 66.34590301 75.07475877 72 84 C72.9083948 85.40654678 73.81728831 86.81277155 74.7265625 88.21875 C85.03894658 104.25722994 94.71359188 120.67869671 102.97412109 137.87451172 C104.09957193 140.20630015 105.24699648 142.52666142 106.39453125 144.84765625 C121.94263252 176.55193556 133.39310034 210.53712708 141 245 C141.35118896 246.58458008 141.35118896 246.58458008 141.70947266 248.20117188 C144.58175873 261.44275869 146.61570079 274.74559362 148.25 288.1875 C148.33317474 288.86920258 148.41634949 289.55090515 148.50204468 290.25326538 C150.67844581 308.33104343 151.24058482 326.18661821 151.25 344.375 C151.25101212 346.13627731 151.25101212 346.13627731 151.25204468 347.93313599 C151.18650657 419.95828614 134.39851645 491.88024959 101.08056641 555.91699219 C99.85767852 558.27435312 98.65398112 560.64113963 97.44921875 563.0078125 C82.21291365 592.73838599 63.44292116 620.3993011 42 646 C41.50677246 646.59232422 41.01354492 647.18464844 40.50537109 647.79492188 C27.24051807 663.68617151 13.09003604 679.62320497 -2.7109375 693.05078125 C-4.56907529 694.63305217 -6.4012055 696.23589641 -8.2265625 697.85546875 C-39.22757413 725.24937872 -74.16100633 747.3659561 -111 766 C-111.86077148 766.43844238 -112.72154297 766.87688477 -113.60839844 767.32861328 C-198.59015279 810.31568599 -300.50505182 821.93430121 -465.58129883 789.68945312 C-478.63966215 785.38484661 -491.40516314 780.5107814 -504 775 C-505.01384766 774.55817383 -506.02769531 774.11634766 -507.07226562 773.66113281 C-551.54910302 754.11580702 -592.82196257 727.41568556 -629 695 C-629.53898926 694.51885742 -630.07797852 694.03771484 -630.63330078 693.54199219 C-637.58042612 687.31412376 -644.26317969 680.83176008 -650.875 674.25 C-651.5767334 673.55293945 -652.2784668 672.85587891 -653.00146484 672.13769531 C-656.98227835 668.14457489 -660.78138538 664.0474117 -664.46337891 659.77734375 C-666.34606676 657.59971941 -668.29694675 655.48952616 -670.25 653.375 C-675.83316022 647.17044252 -680.9472167 640.63610685 -686 634 C-686.53254395 633.30261719 -687.06508789 632.60523438 -687.61376953 631.88671875 C-747.58688054 552.97380844 -784.30038541 454.46559531 -785.25 347.125 C-785.25100708 346.21536499 -785.25201416 345.30572998 -785.25305176 344.36853027 C-785.23977772 326.43842373 -784.06005996 308.80182013 -782 291 C-781.85546387 289.71206543 -781.71092773 288.42413086 -781.56201172 287.09716797 C-775.8867256 237.5279746 -762.27441881 190.06139516 -741 145 C-740.55720703 144.05398926 -740.11441406 143.10797852 -739.65820312 142.13330078 C-729.61147952 120.82744821 -717.50403852 100.29807899 -704 81 C-703.60151855 80.42572266 -703.20303711 79.85144531 -702.79248047 79.25976562 C-696.5249531 70.24166925 -689.87185759 61.56402672 -683 53 C-682.2265625 52.030625 -681.453125 51.06125 -680.65625 50.0625 C-676.13941336 44.46416726 -671.43570697 39.08444374 -666.5546875 33.80078125 C-665.21011172 32.32668211 -663.86999482 30.84763313 -662.57495117 29.32983398 C-657.42183134 23.29417467 -651.84864308 17.69676767 -646.23022461 12.09985352 C-644.56573723 10.4407268 -642.90666553 8.77631949 -641.24804688 7.11132812 C-635.67177573 1.53125385 -630.03441562 -3.9118885 -624 -9 C-622.99014397 -9.87675089 -621.98098722 -10.75430811 -620.97265625 -11.6328125 C-550.44490174 -72.03107743 -464.34146943 -109.36674853 0 0 Z " fill="#FEFEFE" transform="translate(797,135)"/>
<path d="M0 0 C0.51062988 0.4655127 1.02125977 0.93102539 1.54736328 1.41064453 C10.45700128 9.53701765 19.28190632 17.68639864 27.13671875 26.859375 C29.28886777 29.33186486 31.51980719 31.72271357 33.75 34.125 C38.96681803 39.85250051 43.72844564 45.86818009 48.45361328 52.00341797 C50.1318777 54.17027089 51.82817917 56.32215826 53.52734375 58.47265625 C60.0624857 66.76262102 66.34590301 75.07475877 72 84 C72.9083948 85.40654678 73.81728831 86.81277155 74.7265625 88.21875 C85.03894658 104.25722994 94.71359188 120.67869671 102.97412109 137.87451172 C104.09957193 140.20630015 105.24699648 142.52666142 106.39453125 144.84765625 C121.94263252 176.55193556 133.39310034 210.53712708 141 245 C141.35118896 246.58458008 141.35118896 246.58458008 141.70947266 248.20117188 C144.58175873 261.44275869 146.61570079 274.74559362 148.25 288.1875 C148.33317474 288.86920258 148.41634949 289.55090515 148.50204468 290.25326538 C150.67844581 308.33104343 151.24058482 326.18661821 151.25 344.375 C151.25101212 346.13627731 151.25101212 346.13627731 151.25204468 347.93313599 C151.18650657 419.95828614 134.39851645 491.88024959 101.08056641 555.91699219 C99.85767852 558.27435312 98.65398112 560.64113963 97.44921875 563.0078125 C82.21291365 592.73838599 63.44292116 620.3993011 42 646 C41.50677246 646.59232422 41.01354492 647.18464844 40.50537109 647.79492188 C27.24051807 663.68617151 13.09003604 679.62320497 -2.7109375 693.05078125 C-4.56907529 694.63305217 -6.4012055 696.23589641 -8.2265625 697.85546875 C-39.22757413 725.24937872 -74.16100633 747.3659561 -111 766 C-111.86077148 766.43844238 -112.72154297 766.87688477 -113.60839844 767.32861328 C-198.59015279 810.31568599 -300.50505182 821.93430121 -465.58129883 789.68945312 C-478.63966215 785.38484661 -491.40516314 780.5107814 -504 775 C-505.01384766 774.55817383 -506.02769531 774.11634766 -507.07226562 773.66113281 C-551.54910302 754.11580702 -592.82196257 727.41568556 -629 695 C-629.53898926 694.51885742 -630.07797852 694.03771484 -630.63330078 693.54199219 C-637.58042612 687.31412376 -644.26317969 680.83176008 -650.875 674.25 C-651.5767334 673.55293945 -652.2784668 672.85587891 -653.00146484 672.13769531 C-656.98227835 668.14457489 -660.78138538 664.0474117 -664.46337891 659.77734375 C-666.34606676 657.59971941 -668.29694675 655.48952616 -670.25 653.375 C-675.83316022 647.17044252 -680.9472167 640.63610685 -686 634 C-686.53254395 633.30261719 -687.06508789 632.60523438 -687.61376953 631.88671875 C-747.58688054 552.97380844 -784.30038541 454.46559531 -785.25 347.125 C-785.25100708 346.21536499 -785.25201416 345.30572998 -785.25305176 344.36853027 C-785.23977772 326.43842373 -784.06005996 308.80182013 -782 291 C-781.85546387 289.71206543 -781.71092773 288.42413086 -781.56201172 287.09716797 C-775.8867256 237.5279746 -762.27441881 190.06139516 -741 145 C-740.55720703 144.05398926 -740.11441406 143.10797852 -739.65820312 142.13330078 C-729.61147952 120.82744821 -717.50403852 100.29807899 -704 81 C-703.60151855 80.42572266 -703.20303711 79.85144531 -702.79248047 79.25976562 C-696.5249531 70.24166925 -689.87185759 61.56402672 -683 53 C-682.2265625 52.030625 -681.453125 51.06125 -680.65625 50.0625 C-676.13941336 44.46416726 -671.43570697 39.08444374 -666.5546875 33.80078125 C-665.21011172 32.32668211 -663.86999482 30.84763313 -662.57495117 29.32983398 C-657.42183134 23.29417467 -651.84864308 17.69676767 -646.23022461 12.09985352 C-644.56573723 10.4407268 -642.90666553 8.77631949 -641.24804688 7.11132812 C-635.67177573 1.53125385 -630.03441562 -3.9118885 -624 -9 C-622.99014397 -9.87675089 -621.98098722 -10.75430811 -620.97265625 -11.6328125 C-550.44490174 -72.03107743 -464.34146943 -109.36674853 0 0 Z M-416 -44 C-417.1132666 -43.69191406 -418.2265332 -43.38382813 -419.37353516 -43.06640625 C-482.39683563 -25.26811662 -540.16334707 6.24130865 -588 51 C-589.0318619 51.93189822 -590.06576035 52.86154582 -591.1015625 53.7890625 C-603.4442603 64.8912597 -614.70058301 76.98066655 -625 90 C-625.90448408 91.10301295 -626.81084769 92.20448643 -627.71875 93.3046875 C-687.664139 166.36000298 -718.10231713 257.53311569 -716.0513916 356.68347168 C-715.98244434 359.79133889 -715.94277444 362.89951002 -715.8984375 366.0078125 C-714.84479592 415.59070365 -702.77640869 462.70249962 -683 508 C-682.43031494 509.30517578 -682.43031494 509.30517578 -681.84912109 510.63671875 C-666.73643686 544.78446327 -645.41558167 575.87072145 -621 604 C-620.38898438 604.7115625 -619.77796875 605.423125 -619.1484375 606.15625 C-608.48825058 618.48366995 -597.40107177 630.73602503 -584.96875 641.30859375 C-582.72218493 643.23867842 -580.55416096 645.24418139 -578.375 647.25 C-555.65616328 667.69004763 -529.62483615 684.19583579 -503 699 C-502.31695801 699.38285156 -501.63391602 699.76570312 -500.93017578 700.16015625 C-474.08666202 715.15545072 -444.55813629 726.54616065 -414.64819336 733.63037109 C-412.56486916 734.12443815 -410.48452676 734.62979867 -408.40429688 735.13671875 C-353.31336554 748.44116206 -292.4829527 749.6985955 -237 737.625 C-235.9672998 737.40368408 -234.93459961 737.18236816 -233.87060547 736.9543457 C-230.91116967 736.31391216 -227.95499573 735.66058419 -225 735 C-224.26813477 734.83773926 -223.53626953 734.67547852 -222.78222656 734.50830078 C-178.3164022 724.49297698 -135.70679101 705.50958505 -98 680 C-97.29488281 679.52304687 -96.58976563 679.04609375 -95.86328125 678.5546875 C-85.76244726 671.67360933 -76.18042184 664.29197269 -66.78662109 656.47802734 C-65.13595558 655.11247269 -63.47293788 653.76487674 -61.80078125 652.42578125 C-57.17004139 648.70476381 -52.78690287 644.93714766 -48.66015625 640.6640625 C-46.92729295 638.92712187 -45.11686167 637.34154672 -43.25 635.75 C-35.89006499 629.3904445 -29.03535088 622.40402533 -22.7265625 615.00390625 C-20.78258954 612.74766614 -18.76676482 610.56636107 -16.75 608.375 C-11.6931693 602.76200349 -7.04324132 596.87279977 -2.44580078 590.8828125 C-1.48396311 589.63024713 -0.51880102 588.38022738 0.44970703 587.1328125 C13.44273088 570.382194 24.75717013 552.55006351 35 534 C35.4832373 533.12537109 35.96647461 532.25074219 36.46435547 531.34960938 C50.87196114 505.03803013 61.12177455 477.56729643 70 449 C70.33402832 447.92685547 70.66805664 446.85371094 71.01220703 445.74804688 C75.81674814 429.90794852 78.27627358 413.58800977 80.80078125 397.26171875 C80.9077684 396.5770755 81.01475555 395.89243225 81.12498474 395.18704224 C82.59381617 385.48699638 83.15840691 375.96370466 83.16796875 366.15234375 C83.17129715 364.94163712 83.17462555 363.73093048 83.17805481 362.48353577 C83.1830949 359.93116635 83.18546404 357.3787904 83.18530273 354.82641602 C83.18747974 350.97335606 83.20564117 347.12058722 83.22460938 343.26757812 C83.25364091 331.09060037 83.11142473 319.18362756 81.30599976 307.13015747 C80.83476629 303.84975781 80.45716946 300.5589667 80.06689453 297.26811218 C71.8849713 228.735767 49.70154188 166.58380172 8 111 C7.5555957 110.40251953 7.11119141 109.80503906 6.65332031 109.18945312 C-9.79197722 87.11913069 -28.88238801 65.69743378 -50 48 C-50.88042969 47.23042969 -51.76085937 46.46085937 -52.66796875 45.66796875 C-72.10213167 28.76180123 -93.46163976 13.91999248 -115.69140625 0.93359375 C-117.73349803 -0.25983651 -119.76480644 -1.47222226 -121.77734375 -2.71484375 C-151.95704843 -21.1171027 -186.9182408 -34.09303745 -221 -43 C-222.39726318 -43.3727002 -222.39726318 -43.3727002 -223.82275391 -43.75292969 C-236.49940451 -47.1030812 -249.24178637 -49.70557093 -262.1875 -51.75 C-263.43184814 -51.94859619 -264.67619629 -52.14719238 -265.95825195 -52.35180664 C-284.33479617 -55.12892338 -302.73292383 -56.44385718 -321.3125 -56.4375 C-322.26689972 -56.43823517 -323.22129944 -56.43897034 -324.20462036 -56.43972778 C-355.35039496 -56.37770553 -385.97365006 -52.31167303 -416 -44 Z " fill="#010101" transform="translate(797,135)"/>
<path d="M0 0 C1.39973317 0.00225772 2.79947582 0.00098771 4.19920349 -0.00354004 C7.99300764 -0.0058336 11.78478437 0.04116261 15.57811761 0.09705162 C19.5445018 0.1470967 23.51093364 0.15176404 27.47758484 0.16125488 C34.98605126 0.18611031 42.49358473 0.25174485 50.0016405 0.3320508 C58.55043392 0.42150154 67.09927214 0.4654636 75.64841712 0.50561428 C93.2318791 0.58921294 110.81447291 0.7299063 128.3972168 0.90820312 C128.3972168 1.56820313 128.3972168 2.22820312 128.3972168 2.90820312 C126.9909668 4.17773437 126.9909668 4.17773437 124.8972168 5.72070312 C120.46619072 9.06997636 116.13763572 12.52228355 111.8347168 16.03320312 C110.4414974 17.16863178 109.04826806 18.30404824 107.6550293 19.43945312 C106.59977051 20.29990234 106.59977051 20.29990234 105.52319336 21.17773438 C103.44019737 22.87321848 101.35310915 24.56350887 99.2644043 26.25195312 C92.41406249 31.79316595 85.61433418 37.3811192 78.90820312 43.09619141 C74.99832765 46.42138412 71.00907924 49.63073029 66.98706055 52.81835938 C63.3659071 55.74040627 59.82767111 58.75641799 56.28393555 61.77148438 C52.85150071 64.68824825 49.39128865 67.56513738 45.8972168 70.40820312 C41.85738137 73.69644127 37.86641253 77.03555074 33.8972168 80.40820312 C29.1281047 84.45832912 24.31809248 88.45172425 19.4675293 92.40429688 C9.88859791 100.2161226 0.34491727 108.0679315 -9.07104492 116.07568359 C-13.26963995 119.64152333 -17.52866319 123.12794922 -21.80200195 126.60351562 C-24.87054108 129.12853387 -27.89318133 131.70305082 -30.9152832 134.28320312 C-35.35129477 138.06612424 -39.86872101 141.71362329 -44.4777832 145.28320312 C-50.24861581 149.75691087 -55.77675548 154.46428726 -61.26928711 159.27392578 C-65.50513721 162.97738309 -69.81664985 166.5526619 -74.2355957 170.03710938 C-76.75616679 172.02944197 -79.24394542 174.05777687 -81.7277832 176.09570312 C-86.92066228 180.35371789 -92.12912662 184.59220721 -97.34301758 188.82446289 C-100.79592962 191.6273147 -104.24695391 194.43239208 -107.69262695 197.24414062 C-114.51649668 202.80866252 -121.37118401 208.3244023 -128.31201172 213.74243164 C-132.80986749 217.26213274 -137.24272228 220.85703165 -141.6652832 224.47070312 C-147.48257476 229.21993828 -153.37058248 233.8535569 -159.34106445 238.40820312 C-165.14647325 242.84162003 -170.86720538 247.38509378 -176.6027832 251.90820312 C-176.6027832 247.82339836 -174.62191916 245.36083385 -172.4777832 242.03320312 C-171.83763527 241.03074806 -171.83763527 241.03074806 -171.18455505 240.00804138 C-167.54643307 234.33720514 -163.83099775 228.72188358 -160.08325195 223.12304688 C-153.62296225 213.45144034 -147.20727709 203.75121443 -140.81185913 194.03662109 C-138.96779567 191.23559889 -137.12289877 188.43512705 -135.27783203 185.63476562 C-129.50608419 176.87412828 -123.73666314 168.11196118 -117.96897888 159.34864807 C-105.74635163 140.77903066 -93.50296121 122.22472558 -81.15368652 103.73904419 C-68.46585303 84.74275419 -55.91125059 65.65880062 -43.35687256 46.57415771 C-41.06408737 43.08946569 -38.76996681 39.60565381 -36.47584534 36.12184143 C-34.34908775 32.8917599 -32.22322658 29.66108928 -30.09768677 26.4302063 C-29.11526603 24.93709123 -28.13258741 23.44414579 -27.14962769 21.9513855 C-25.79977175 19.90112846 -24.45111574 17.85008723 -23.1027832 15.79882812 C-22.71764053 15.21434402 -22.33249786 14.62985992 -21.9356842 14.02766418 C-21.56801437 13.46778305 -21.20034454 12.90790192 -20.8215332 12.33105469 C-20.46934786 11.81703315 -20.11716251 11.30301161 -19.75430489 10.77341366 C-18.54616808 8.93269258 -18.54616808 8.93269258 -17.77058125 6.85586929 C-14.1251609 -1.1677934 -7.95303775 -0.17463883 0 0 Z " fill="#020202" transform="translate(465.602783203125,502.091796875)"/>
<path d="M0 0 C0 3.30971424 -0.46971911 4.10984297 -2.203125 6.81640625 C-2.69039062 7.58275391 -3.17765625 8.34910156 -3.6796875 9.13867188 C-4.19789063 9.93853516 -4.71609375 10.73839844 -5.25 11.5625 C-5.72179687 12.30435547 -6.19359375 13.04621094 -6.6796875 13.81054688 C-10.72451478 20.13188592 -14.90180317 26.36491108 -19.07052612 32.60479736 C-23.07614527 38.60408154 -27.05604193 44.61990892 -31.0234375 50.64453125 C-31.62406006 51.55656815 -32.22468262 52.46860504 -32.84350586 53.40827942 C-35.30058536 57.14035073 -37.75681223 60.87298269 -40.21289062 64.60571289 C-49.09470533 78.10224043 -58.02284236 91.56670053 -67 105 C-67.46003418 105.68851044 -67.92006836 106.37702087 -68.39404297 107.08639526 C-69.24393459 108.35837816 -70.09384824 109.63034633 -70.94378662 110.90229797 C-83.34292468 129.45823118 -95.65866161 148.06784488 -107.92602539 166.71118164 C-113.40338235 175.03419065 -118.8899067 183.35018261 -124.42578125 191.63439941 C-128.63254566 197.93550201 -132.78297284 204.27322966 -136.93225098 210.61227417 C-143.67319196 220.90836682 -150.42858005 231.19449061 -157.25 241.4375 C-158.1167334 242.74098389 -158.1167334 242.74098389 -159.00097656 244.07080078 C-159.52143555 244.85052246 -160.04189453 245.63024414 -160.578125 246.43359375 C-161.02575195 247.10447021 -161.47337891 247.77534668 -161.93457031 248.46655273 C-163 250 -163 250 -164 251 C-165.82227687 251.09643778 -167.6483336 251.12187371 -169.47315979 251.12025452 C-171.25481537 251.12231651 -171.25481537 251.12231651 -173.07246399 251.12442017 C-175.04475227 251.11902725 -175.04475227 251.11902725 -177.05688477 251.11352539 C-178.44617714 251.11324352 -179.83546967 251.11340125 -181.22476196 251.1139679 C-185.00765289 251.11425588 -188.79051238 251.10835901 -192.57339597 251.10139394 C-196.52255677 251.09516055 -200.47171822 251.09455661 -204.42088318 251.09336853 C-211.90425075 251.09025517 -219.38760379 251.08204172 -226.87096494 251.07201904 C-235.38835733 251.06085805 -243.9057504 251.05534749 -252.42314827 251.05032361 C-269.94877394 251.03985911 -287.47438543 251.02225958 -305 251 C-299.51921687 245.49748949 -299.51921687 245.49748949 -296.80078125 243.16796875 C-295.95471313 242.44178345 -295.95471313 242.44178345 -295.09155273 241.70092773 C-294.50446533 241.20149658 -293.91737793 240.70206543 -293.3125 240.1875 C-292.38449585 239.39484741 -292.38449585 239.39484741 -291.43774414 238.58618164 C-287.21084948 234.99060847 -282.9135254 231.49820315 -278.55859375 228.05859375 C-275.4927588 225.5918838 -272.49550413 223.05127586 -269.5 220.5 C-265.71106812 217.27361216 -261.90141081 214.09072805 -258 211 C-253.54746299 207.47116597 -249.21314021 203.81770671 -244.88671875 200.13671875 C-241.45428391 197.21995487 -237.99407185 194.34306574 -234.5 191.5 C-230.46016457 188.21176186 -226.46919573 184.87265239 -222.5 181.5 C-217.7308879 177.44987401 -212.92087568 173.45647887 -208.0703125 169.50390625 C-198.49138111 161.69208052 -188.94770048 153.84027163 -179.53173828 145.83251953 C-175.33671818 142.26971596 -171.08085722 138.78674425 -166.8125 135.3125 C-163.68200149 132.73853455 -160.58834366 130.12423097 -157.5 127.5 C-150.84966349 121.85142056 -144.09878994 116.33176492 -137.328125 110.828125 C-132.32107312 106.74723301 -127.35805305 102.62183939 -122.4375 98.4375 C-117.83946274 94.52903365 -113.18544638 90.70768041 -108.45703125 86.95703125 C-103.9321586 83.35295939 -99.47174634 79.66961105 -95 76 C-91.3360475 72.99666924 -87.66916943 69.99695519 -84 67 C-83.40026367 66.50983398 -82.80052734 66.01966797 -82.18261719 65.51464844 C-74.6323699 59.34753653 -67.05087714 53.23092324 -59.36230469 47.23706055 C-54.65383055 43.55017376 -50.04133862 39.7538669 -45.4375 35.9375 C-38.93840723 30.55403156 -32.33661923 25.35161122 -25.62109375 20.24169922 C-16.9814966 13.62408007 -8.48036268 6.81946216 0 0 Z " fill="#020202" transform="translate(671,206)"/>
</svg>
